HIERARCHY
ROOT Hips
{
	OFFSET 0.0000 0.0000 0.0000
	CHANNELS 6 Xposition Yposition Zposition Zrotation Xrotation Yrotation
	JOINT Ab
	{
		OFFSET -0.0000 8.1305 -0.0000
		CHANNELS 3 Zrotation Xrotation Yrotation
		JOINT Chest
		{
			OFFSET -0.0000 26.2902 -0.0000
			CHANNELS 3 Zrotation Xrotation Yrotation
			JOINT Neck
			{
				OFFSET -0.0000 26.2902 0.0000
				CHANNELS 3 Zrotation Xrotation Yrotation
				JOINT Head
				{
					OFFSET -0.0000 10.8167 0.0000
					CHANNELS 3 Zrotation Xrotation Yrotation
					End Site
					{
						OFFSET -0.0000 16.7167 0.0000
					}
				}
			}
			JOINT LeftCollar
			{
				OFFSET -0.0000 26.2902 0.0000
				CHANNELS 3 Zrotation Xrotation Yrotation
				JOINT LeftShoulder
				{
					OFFSET 19.6667 -0.0000 0.0000
					CHANNELS 3 Zrotation Xrotation Yrotation
					JOINT LeftElbow
					{
						OFFSET 27.2190 0.0000 0.0000
						CHANNELS 3 Zrotation Xrotation Yrotation
						JOINT LeftWrist
						{
							OFFSET 30.7431 0.0000 0.0000
							CHANNELS 3 Zrotation Xrotation Yrotation
							End Site
							{
								OFFSET 0.0000 -14.7500 0.0000
							}
						}
					}
				}
			}
			JOINT RightCollar
			{
				OFFSET -0.0000 26.2902 0.0000
				CHANNELS 3 Zrotation Xrotation Yrotation
				JOINT RightShoulder
				{
					OFFSET -19.6667 0.0000 0.0000
					CHANNELS 3 Zrotation Xrotation Yrotation
					JOINT RightElbow
					{
						OFFSET -27.2190 0.0000 0.0000
						CHANNELS 3 Zrotation Xrotation Yrotation
						JOINT RightWrist
						{
							OFFSET -30.7431 0.0000 0.0000
							CHANNELS 3 Zrotation Xrotation Yrotation
							End Site
							{
								OFFSET -0.0000 -14.7500 0.0000
							}
						}
					}
				}
			}
		}
	}
	JOINT LeftHip
	{
		OFFSET 11.8000 0.0000 0.0000
		CHANNELS 3 Zrotation Xrotation Yrotation
		JOINT LeftKnee
		{
			OFFSET -0.0000 -39.7832 0.0000
			CHANNELS 3 Zrotation Xrotation Yrotation
			JOINT LeftAnkle
			{
				OFFSET -0.0000 -41.7317 0.0000
				CHANNELS 3 Zrotation Xrotation Yrotation
				End Site
				{
					OFFSET -0.0000 -4.9167 16.7167
				}
			}
		}
	}
	JOINT RightHip
	{
		OFFSET -11.8000 0.0000 0.0000
		CHANNELS 3 Zrotation Xrotation Yrotation
		JOINT RightKnee
		{
			OFFSET -0.0000 -39.7832 0.0000
			CHANNELS 3 Zrotation Xrotation Yrotation
			JOINT RightAnkle
			{
				OFFSET -0.0000 -41.7317 0.0000
				CHANNELS 3 Zrotation Xrotation Yrotation
				End Site
				{
					OFFSET -0.0000 -4.9167 16.7167
				}
			}
		}
	}
}
MOTION
Frames: 21
Frame Time: 0.010000
-19.7814 97.1208 178.9158 358.4420 357.2542 181.2533 357.9707 348.1373 359.9472 2.3631 10.1160 359.9510 358.9565 356.0747 0.9289 356.5103 4.1025 1.0897 339.8325 357.3879 14.6819 316.1935 57.1296 342.1379 9.8825 357.0514 326.8566 87.7815 357.7666 346.8359 27.8407 355.8495 343.3095 46.7712 42.4658 1.3338 339.6787 354.2911 31.1439 270.2521 354.7013 9.1955 355.3676 3.2732 359.8947 357.7528 5.9320 5.4682 355.7807 352.2524 14.5734 358.6712 6.2266 11.6586 6.3263 5.4884 8.3737 349.2537 343.4142 311.4227 
-19.8089 97.1143 178.8907 358.4493 357.2205 181.2349 357.9710 348.1315 359.9572 2.3819 10.1307 359.9483 358.9612 356.0649 0.9401 356.4795 4.1144 1.1025 339.8239 357.3664 14.6949 316.2531 57.1609 342.0723 9.9086 357.0632 326.8996 88.0982 357.7236 347.0339 27.8234 355.8621 343.3109 46.7508 42.5118 1.3854 339.5905 354.2561 31.1789 270.7941 354.5298 8.2957 355.3615 3.2544 359.8787 357.7371 5.9375 5.4825 355.8104 352.2406 14.5853 358.6596 6.1873 11.6566 6.3271 5.5272 8.3599 349.2730 343.3407 311.4333 
-19.8414 97.1122 178.8602 358.4516 357.1938 181.2260 357.9704 348.1262 359.9569 2.3805 10.1397 359.9533 359.0206 356.0689 0.9491 356.4112 4.1313 1.1110 339.8395 357.3938 14.6751 316.2353 57.1625 342.0823 9.8612 357.0535 326.8915 88.3329 357.7340 347.1230 27.8136 355.8295 343.3025 46.7682 42.5755 1.3792 339.5184 354.2460 31.1674 270.8384 354.5342 8.1868 355.3469 3.2496 359.8337 357.7236 5.9419 5.4756 355.8245 352.1982 14.6705 358.6392 6.1737 11.6520 6.3294 5.5382 8.3517 349.2256 343.3932 311.5344 
-19.8720 97.1069 178.8313 358.4565 357.1599 181.2143 357.9682 348.1191 359.9634 2.3929 10.1557 359.9558 359.0392 356.0316 0.9560 356.3738 4.1832 1.1193 339.8522 357.3789 14.6583 316.1362 57.1372 342.1743 9.9513 357.0274 326.8569 88.1779 357.7209 347.0812 27.8143 355.8532 343.3076 46.7713 42.5552 1.3702 339.5693 354.2560 31.1978 270.8006 354.5692 8.1699 355.3324 3.2340 359.8170 357.7217 5.9479 5.4732 355.8269 352.1645 14.6892 358.6185 6.1387 11.6166 6.3417 5.5829 8.4190 349.2433 343.3373 311.4430 
-19.9065 97.1018 178.7989 358.4510 357.1349 181.2160 357.9667 348.1272 359.9541 2.3774 10.1512 359.9503 359.0562 356.0145 0.9640 356.3795 4.2316 1.1282 339.8655 357.3990 14.6368 316.0742 57.0961 342.2509 9.9026 357.0294 326.8340 88.1597 357.7230 346.9903 27.8224 355.8251 343.3097 46.7834 42.5907 1.3606 339.5244 354.2173 31.1932 270.9174 354.5356 8.0378 355.3045 3.2282 359.7766 357.7173 5.9529 5.4974 355.8147 352.1341 14.6883 358.5887 6.1230 11.5590 6.3476 5.6077 8.4696 348.7808 343.5988 311.3914 
-19.9401 97.0945 178.7728 358.4614 357.0921 181.2188 357.9948 348.1290 359.9495 2.3499 10.1433 359.9329 359.0496 356.0148 0.9670 356.3927 4.2311 1.1322 339.8712 357.3890 14.6622 316.1407 57.1208 342.1654 9.9377 357.0233 326.8778 88.0861 357.7097 346.9875 27.8376 355.8451 343.3160 46.7586 42.6056 1.3665 339.5682 354.2439 31.2172 270.8990 354.5452 8.0374 355.2965 3.1971 359.7592 357.7090 5.9690 5.4691 355.8378 352.1009 14.7091 358.5716 6.0876 11.5634 6.3638 5.6238 8.4476 349.1698 343.3135 311.4163 
-19.9741 97.0896 178.7364 358.4714 357.0696 181.2099 357.9861 348.1541 359.9595 2.3881 10.1211 359.9514 359.0334 356.0436 0.9626 356.4048 4.2077 1.1276 339.8127 357.3839 14.6666 316.2710 57.1032 342.1042 9.8394 357.0597 326.8757 88.2938 357.7088 347.0479 27.8084 355.8408 343.2784 46.7558 42.6812 1.4148 339.4880 354.2136 31.1672 270.9927 354.6074 8.1289 355.2855 3.2047 359.7280 357.7004 5.9608 5.4849 355.8975 352.0788 14.7193 358.5502 6.0860 11.6108 6.3850 5.6197 8.4158 349.2692 343.2215 311.4073 
-20.0055 97.0842 178.7012 358.4824 357.0389 181.1940 357.9883 348.1611 359.9684 2.3992 10.1185 359.9625 359.0519 356.0428 0.9522 356.3860 4.2127 1.1171 339.8108 357.3705 14.6637 316.2749 57.1126 342.1113 9.8756 357.0460 326.8562 88.2605 357.6978 347.0371 27.7994 355.8350 343.2516 46.7715 42.7053 1.4306 339.5182 354.2618 31.1092 270.5184 354.6916 8.6222 355.2827 3.2062 359.7108 357.6826 5.9469 5.4911 355.9271 352.0572 14.7343 358.5381 6.0622 11.6228 6.3912 5.6462 8.4012 349.2652 343.2258 311.4819 
-20.0441 97.0811 178.6730 358.4781 356.9921 181.1905 357.9977 348.1544 359.9675 2.3744 10.1220 359.9612 359.0695 356.0152 0.9494 356.3700 4.2487 1.1151 339.8435 357.3876 14.6656 316.2249 57.1156 342.1256 9.9013 357.0522 326.8628 88.1986 357.6846 346.9766 27.8039 355.8339 343.2432 46.7761 42.7237 1.4463 339.5464 354.2606 31.0877 270.3684 354.7204 8.8047 355.2528 3.1735 359.6578 357.6752 5.9608 5.5202 355.9339 352.0302 14.7444 358.5022 6.0145 11.6085 6.4044 5.6854 8.4082 348.8479 343.4889 311.4940 
-20.0812 97.0757 178.6383 358.4886 356.9596 181.1833 357.9969 348.1547 359.9751 2.3903 10.1306 359.9690 359.0861 356.0016 0.9521 356.3410 4.2754 1.1201 339.8307 357.3755 14.6757 316.2847 57.1129 342.0682 9.8889 357.0456 326.8773 88.1905 357.6819 346.9585 27.8132 355.8276 343.2772 46.7728 42.6934 1.4023 339.5704 354.2668 31.1128 270.2989 354.7408 8.9052 355.2425 3.1604 359.6343 357.6627 5.9732 5.5179 355.9563 351.9975 14.7674 358.4813 5.9899 11.6506 6.4245 5.7045 8.3748 348.6977 343.5577 311.4751 
-20.1204 97.0691 178.5970 358.4969 356.9383 181.1787 358.0093 348.1657 359.9792 2.3799 10.1317 359.9698 359.1103 356.0035 0.9580 356.3072 4.3010 1.1285 339.8132 357.3748 14.6642 316.3629 57.0842 342.0454 9.8235 357.0725 326.8730 88.2595 357.6701 346.9719 27.8125 355.8356 343.2734 46.7839 42.6882 1.4075 339.5821 354.2579 31.0868 270.3212 354.7816 9.1955 355.2267 3.1647 359.5966 357.6549 5.9807 5.5118 356.0020 351.9633 14.7974 358.4597 5.9853 11.6738 6.4410 5.7194 8.3228 348.7079 343.5237 311.4959 
-20.1596 97.0624 178.5552 358.5004 356.9065 181.1792 358.1096 348.1161 359.9609 2.2180 10.2505 359.9537 359.2415 355.8600 0.9354 356.0913 4.4421 1.1129 339.8949 357.3906 14.6815 316.3989 57.0125 341.9623 9.8306 357.0697 326.8696 88.2319 357.6365 346.9084 27.8609 355.8157 343.2726 46.7791 42.7038 1.4819 339.5999 354.2684 31.0661 270.1948 354.6837 9.1737 355.2080 3.1560 359.5394 357.6410 5.9914 5.5428 356.0139 351.9273 14.8142 358.4377 5.9659 11.6584 6.4489 5.7507 8.3275 349.0884 343.2220 311.5074 
-20.2006 97.0579 178.5140 358.5021 356.8697 181.1872 358.1451 348.0713 359.9499 2.1670 10.3487 359.9486 359.3220 355.7660 0.9293 355.9280 4.5186 1.1133 339.9398 357.3735 14.7074 316.3451 56.9699 341.9633 9.8962 357.0572 326.8417 88.2785 357.6382 346.9245 27.8589 355.8140 343.2886 46.7746 42.7277 1.5374 339.6127 354.2708 31.0620 270.1201 354.6361 9.1061 355.1865 3.0599 359.3821 357.6128 6.1618 5.6459 356.0743 351.8155 14.8425 358.4120 5.9426 11.6610 6.4567 5.7816 8.3085 348.9695 343.2628 311.5034 
-20.2396 97.0509 178.4718 358.5064 356.8375 181.1941 358.1330 348.0723 359.9514 2.1931 10.3604 359.9484 359.3185 355.7749 0.9313 355.9110 4.5043 1.1171 339.9394 357.3847 14.7084 316.3038 56.9534 342.0104 9.8658 357.0601 326.7993 88.3467 357.6823 346.9471 27.8486 355.8416 343.3121 46.7794 42.6851 1.5258 339.6548 354.2708 31.0924 270.1148 354.6528 9.1478 355.1705 2.9945 359.2590 357.5870 6.2846 5.7070 356.0814 351.7200 14.8832 358.3915 5.9233 11.6394 6.4620 5.8152 8.3053 348.7435 343.3714 311.4983 
-20.2789 97.0423 178.4333 358.5147 356.8016 181.1909 358.1342 348.1060 359.9612 2.2064 10.3142 359.9537 359.3024 355.8017 0.9272 355.9320 4.4864 1.1115 339.9247 357.3810 14.7125 316.3517 56.9713 341.9742 9.8661 357.0590 326.8188 88.2974 357.6685 346.9607 27.8424 355.8455 343.3143 46.8021 42.6686 1.5035 339.6237 354.2629 31.0998 270.1495 354.6562 9.1207 355.1549 2.9707 359.2120 357.5763 6.3178 5.7007 356.1141 351.6715 14.9256 358.3738 5.8879 11.6151 6.4696 5.8663 8.3195 348.7536 343.3150 311.4988 
-20.3223 97.0360 178.3938 358.5158 356.7612 181.1868 358.1343 348.1164 359.9662 2.2075 10.3049 359.9584 359.3177 355.7923 0.9298 355.9202 4.4995 1.1144 339.9199 357.3820 14.7299 316.4053 56.9562 341.9039 9.8435 357.0745 326.8504 88.1927 357.6599 346.9202 27.8425 355.8405 343.3322 46.8185 42.6480 1.4763 339.5821 354.2662 31.1351 270.4224 354.6019 8.7090 355.1263 2.9430 359.1557 357.5684 6.3496 5.7066 356.1695 351.6268 14.9622 358.3421 5.8492 11.6401 6.4883 5.9146 8.3008 348.7651 343.2570 311.4860 
-20.3676 97.0286 178.3488 358.5189 356.7249 181.1961 358.1334 348.1220 359.9650 2.2037 10.3028 359.9631 359.3403 355.7892 0.9319 355.9116 4.5119 1.1163 339.9403 357.3861 14.7357 316.3838 56.9583 341.8918 9.8586 357.0615 326.8614 88.0488 357.6614 346.8391 27.8449 355.8459 343.3481 46.8431 42.6052 1.4433 339.5865 354.2588 31.1739 270.6170 354.4990 8.2886 355.1007 2.9218 359.0742 357.5565 6.3823 5.7320 356.1861 351.5736 14.9929 358.3158 5.8235 11.6217 6.4978 5.9549 8.3089 348.7679 343.2070 311.4714 
-20.4145 97.0194 178.3026 358.5282 356.6894 181.2031 358.1477 348.1335 359.9687 2.1925 10.2892 359.9676 359.3452 355.7948 0.9416 355.9321 4.5122 1.1243 339.9459 357.3797 14.7433 316.3968 56.9684 341.8740 9.8663 357.0503 326.8675 88.0647 357.6578 346.8566 27.8402 355.8473 343.3469 46.8698 42.6323 1.4382 339.5610 354.2417 31.1553 270.6268 354.4695 8.2561 355.0817 2.8977 358.9957 357.5413 6.4232 5.7862 356.2242 351.5194 14.9934 358.2949 5.7933 11.5758 6.5056 6.0121 8.3563 349.0156 342.9828 311.4655 
-20.4635 97.0110 178.2422 358.5384 356.6678 181.2034 358.1776 348.1270 359.9742 2.1599 10.3218 359.9710 359.3537 355.7676 0.9376 355.9327 4.5359 1.1209 339.9505 357.3689 14.7512 316.4408 56.9504 341.8386 9.8522 357.0625 326.8700 88.0822 357.6550 346.8923 27.8346 355.8407 343.3399 46.8968 42.6992 1.4524 339.5296 354.2409 31.1074 270.4138 354.5296 8.5318 355.0635 2.9025 358.9282 357.5246 6.4540 5.8001 356.2945 351.4605 15.0220 358.2700 5.7914 11.5448 6.5184 6.0562 8.3793 349.1130 342.8539 311.4631 
-20.5143 97.0036 178.1811 358.5448 356.6363 181.2131 358.1767 348.1308 359.9866 2.1718 10.3287 359.9826 359.3709 355.7436 0.9157 355.8837 4.5636 1.1032 339.9439 357.3676 14.7419 316.4141 56.9230 341.8822 9.8178 357.0745 326.8227 88.2064 357.6860 346.9317 27.8329 355.8447 343.3253 46.8860 42.6979 1.4456 339.5760 354.2583 31.0886 270.1265 354.6223 9.0659 355.0427 2.8958 358.8562 357.5080 6.4897 5.7732 356.3900 351.3947 15.0802 358.2404 5.7825 11.5096 6.5316 6.0933 8.3967 348.7844 343.0214 311.4345 
-20.5671 96.9951 178.1276 358.5476 356.5938 181.2365 358.1720 348.1153 359.9917 2.1872 10.3692 359.9761 359.3854 355.7091 0.9006 355.8556 4.5628 1.0868 339.9567 357.3765 14.7247 316.3647 56.8893 341.8998 9.8165 357.0749 326.8073 88.1743 357.6464 346.8582 27.8358 355.8328 343.3382 46.8647 42.6798 1.4390 339.5776 354.2475 31.0966 270.1645 354.6219 9.1027 354.9775 2.7817 358.8226 357.5708 6.6987 5.8005 356.3842 351.2632 15.0391 358.2075 5.7520 11.4415 6.5438 6.1543 8.4311 348.7988 342.9514 311.4351 
